<svg width="157" height="66" viewBox="0 0 157 66" fill="none" xmlns="http://www.w3.org/2000/svg">
<g clip-path="url(#clip0_580_701)">
<path d="M30.9 64.2L17.5 48.7L29 36H20.7L11.5 45.9V27.2H0.599976C2.59998 28.9 4.39998 31.2 4.39998 34.4V64.2H11.5V52.3L22.1 64.2H30.9Z" fill="#231F20"/>
<path d="M123.1 36V64.2H116V43.2C116 40 114.2 37.7 112.2 36H123.1Z" fill="#231F20"/>
<path d="M153 58.2L156.4 64.2H128.4L142.8 41.9H129.4V36H155.8L140.2 58.2H153Z" fill="#231F20"/>
<path d="M44.4 56.1V41.9H49.4L52.8 36H44.4V27.2L37.3 31.3V36H32V41.9H37.3V56.4C37.3 60.7 40.7 64.2 45 64.2H50.7V58.2H46.6C45.4 58.2 44.4 57.3 44.4 56.1Z" fill="#231F20"/>
<path d="M101.3 36L94.3 50.8L86.1 35.2L77.9 50.8L70.8 36H59.7C62.3 37.4 65.1 39.8 66.8 43.3C68.6 46.8 77.5 64.9 77.5 64.9L86.1 48.5L94.6 64.9L109 36H101.3Z" fill="#231F20"/>
<path d="M118.9 27.2C117.9 19.6 112.6 11 104.9 4.69998C113.2 7.59998 120.3 6.19998 123.5 1.09998C124.5 8.69998 129.9 17.3 137.5 23.5C129.3 20.6 122.1 22 118.9 27.2Z" fill="#EC1C24"/>
</g>
<defs>
<clipPath id="clip0_580_701">
<rect width="156" height="65" fill="white" transform="translate(0.5 0.5)"/>
</clipPath>
</defs>
</svg>