<svg version="1.2" xmlns="http://www.w3.org/2000/svg" viewBox="0 0 268 226" width="268" height="226"><style>.a{fill:#fefefe}.b{fill:#110f29}.c{fill:#c6c5c5}.d{fill:#050505}.e{fill:#ec1c24}</style><path class="a" d="m246.4 113.3c0 62.2-50.5 112.7-112.7 112.7-62.2 0-112.6-50.5-112.6-112.7 0-62.2 50.4-112.7 112.6-112.7 62.2 0 112.7 50.5 112.7 112.7z"/><path class="b" d="m243.3 113.2c0 60.5-49.1 109.5-109.6 109.5-60.5 0-109.5-49-109.5-109.5 0-60.5 49-109.6 109.5-109.6 60.5 0 109.6 49.1 109.6 109.6z"/><path class="a" d="m219.4 113.1c0 47.2-38.3 85.5-85.5 85.5-47.3 0-85.6-38.3-85.6-85.5 0-47.2 38.3-85.5 85.6-85.5 47.2 0 85.5 38.3 85.5 85.5z"/><path class="c" d="m112.4 112.4q0-0.3 0-0.5l6.1 3.4 1-1.8-7.2-4q-0.1-4.1-0.5-8l6.5 3.1 0.9-1.8-7.7-3.8q-0.4-3.9-1.2-7.8l7 2.3 0.6-1.9-8.1-2.7q-0.7-3.5-1.7-6.8l6.8 1.4 0.4-2.1-7.9-1.6q-0.9-2.9-2-5.8l7.1 1.4 0.4-2-8.4-1.7q-1.3-3.4-2.9-6.6l7.2 0.7 0.2-2-8.5-0.9q-1.7-3.5-3.7-6.7h7v-2.1h-8.2q-2.1-3.2-4.3-6.3l6.6-0.5-0.2-2.1-7.9 0.7q-1-1.4-2.1-2.7l-2.6 1.5q1.1 1.4 2.2 2.8l-2.9 7.9 1.9 0.7 2.5-6.6q2.3 3 4.3 6.3l-3.4 7.3 1.8 0.9 2.9-6.1q1.9 3.3 3.7 6.7l-4.1 6.6 1.8 1.1 3.3-5.5q1.5 3.1 2.8 6.4l-4.6 6.2 1.6 1.2 3.9-5.2q1 2.7 1.8 5.4l-5 6.6 1.7 1.3 4-5.5q1 3.4 1.7 6.8l-5.3 5.7 1.5 1.4 4.3-4.6q0.7 3.6 1.1 7.2l-6.1 5 1.3 1.6 5.1-4.1q0.3 3.7 0.4 7.5l-6.5 4.8 1.2 1.6 5.4-3.9q0 0.1 0 0.2 0 3.1-0.2 6.1l-6.9 4 1 1.8 5.7-3.3q-0.2 3-0.6 5.9l-7.3 3.8 0.9 1.8 6-3q-0.5 3.1-1.1 6.1l-7.3 3.3 0.8 1.8 5.8-2.6q-0.7 2.9-1.5 5.8l-7.5 2.9 0.8 1.9 5.8-2.3q-1 3.1-2.2 6l-7.6 2.2 0.6 1.9 6-1.6q-1.2 2.6-2.5 5.2l-7.7 1.4 0.3 2 6.2-1.1q-1.3 2.5-2.7 4.9l-8 0.5 0.2 2.1 6.5-0.5q-1.5 2.3-3 4.4l-7.6 0.2v2l6.1-0.1q-1.6 2.2-3.3 4.2l1.6 2.7q2.5-2.9 4.7-6l3.4 6.8 1.8-0.9-3.8-7.8q1.5-2.2 2.9-4.4l3.5 6.3 1.8-1-4.1-7.3q1.6-2.7 3.1-5.4l4.2 6 1.7-1.2-4.9-6.9q1.4-2.9 2.7-5.8l4.8 5.5 1.6-1.3-5.5-6.4q1.3-3.2 2.4-6.6l5.3 5.1 1.4-1.5-6.1-5.7q1-3.1 1.7-6.2l5.5 4.7 1.4-1.5-6.4-5.5q0.7-3.1 1.2-6.2l5.5 4.3 1.3-1.6-6.4-5q0.4-3.2 0.6-6.5l5.9 4.1 1.1-1.7-6.8-4.8q0.2-3 0.2-6z"/><path class="c" d="m185.4 174l-7.6-0.2q-1.5-2.1-2.9-4.4l6.4 0.5 0.2-2.1-8-0.5q-1.4-2.4-2.7-4.9l6.2 1.1 0.3-2-7.7-1.4q-1.3-2.6-2.5-5.2l6 1.6 0.6-1.9-7.6-2.2q-1.2-2.9-2.2-6l5.8 2.3 0.8-1.9-7.4-2.9q-0.9-2.9-1.6-5.8l5.8 2.6 0.8-1.8-7.2-3.3q-0.7-3-1.2-6.1l6 3 0.9-1.8-7.3-3.8q-0.4-2.9-0.6-5.9l5.7 3.3 1-1.8-6.9-4q-0.2-3-0.2-6.1 0-0.1 0-0.2l5.4 3.9 1.2-1.6-6.5-4.8q0.1-3.8 0.4-7.5l5.1 4.1 1.3-1.6-6.1-5q0.4-3.6 1.1-7.2l4.3 4.6 1.5-1.4-5.3-5.7q0.7-3.4 1.7-6.8l4 5.5 1.7-1.3-5-6.6q0.8-2.7 1.8-5.4l3.9 5.2 1.6-1.2-4.6-6.2q1.3-3.3 2.8-6.4l3.3 5.5 1.8-1.1-4-6.6q1.7-3.4 3.6-6.7l2.9 6.1 1.8-0.9-3.4-7.3q2.1-3.3 4.3-6.3l2.5 6.6 1.9-0.7-2.9-7.9q1.1-1.4 2.2-2.8l-2.6-1.5q-1.1 1.3-2.1 2.7l-7.9-0.7-0.2 2.1 6.6 0.5q-2.2 3.1-4.2 6.3h-8.3v2.1h7q-2 3.2-3.7 6.7l-8.5 0.9 0.2 2 7.2-0.7q-1.6 3.2-2.9 6.6l-8.4 1.7 0.4 2 7.1-1.4q-1.1 2.9-2 5.8l-7.9 1.6 0.4 2.1 6.8-1.4q-1 3.3-1.7 6.8l-8.1 2.7 0.6 1.9 7-2.3q-0.7 3.9-1.2 7.8l-7.7 3.8 0.9 1.8 6.5-3.1q-0.4 3.9-0.5 8l-7.2 4 1 1.8 6.2-3.4q0 0.2-0.1 0.5 0.1 3.1 0.2 6l-6.8 4.8 1.1 1.7 5.9-4.1q0.2 3.3 0.6 6.5l-6.4 5 1.3 1.6 5.5-4.3q0.5 3.1 1.2 6.2l-6.4 5.5 1.4 1.5 5.5-4.7q0.7 3.1 1.7 6.2l-6.1 5.7 1.5 1.5 5.3-5q1 3.3 2.3 6.5l-5.5 6.4 1.6 1.3 4.8-5.5q1.3 2.9 2.7 5.8l-4.9 6.9 1.7 1.2 4.3-6q1.4 2.7 3 5.4l-4.1 7.3 1.8 1 3.5-6.3q1.4 2.2 2.9 4.4l-3.8 7.8 1.9 0.9 3.3-6.8q2.2 3.1 4.7 6l1.6-2.7q-1.7-2-3.3-4.2l6.1 0.1z"/><path fill-rule="evenodd" class="d" d="m86.3 54.9l8.3 0.1c6.6 0 5.8 3.1 4.6 6.5-1.3 3.4-2.7 6.6-9.3 6.6h-8.2zm1.9 10.6h1.1c2.2 0 2.7-0.5 3.9-4.1 1.3-3.5 1.2-4.1-1-4.1h-1.1z"/><path fill-rule="evenodd" class="d" d="m110.2 54.7c5.8 0 7.1 1.9 5.4 6.8-1.7 4.9-4.4 6.8-10.2 6.8-5.8 0-7.1-1.9-5.4-6.8 1.7-4.9 4.4-6.8 10.2-6.8zm-4 11.3c1.8 0 2.3-0.9 3.5-4.5 1.3-3.5 1.4-4.5-0.3-4.5-1.7 0-2.3 1-3.5 4.5-1.3 3.6-1.4 4.5 0.3 4.5z"/><path fill-rule="evenodd" class="d" d="m126.7 54.7c5.8 0 7.1 1.9 5.4 6.8-1.8 4.9-4.4 6.8-10.2 6.8-5.9 0-7.2-1.9-5.5-6.8 1.8-4.9 4.5-6.8 10.3-6.8zm-4 11.3c1.7 0 2.2-0.9 3.5-4.5 1.2-3.5 1.4-4.5-0.4-4.5-1.7 0-2.2 1-3.5 4.5-1.2 3.6-1.4 4.5 0.4 4.5z"/><path class="d" d="m142.7 58.7l0.1-0.3c0.2-0.7-0.1-1.4-1.2-1.4-1.2 0-1.9 0.6-2.2 1.2-0.8 2.6 8.9 1.3 7.2 6.1-1 2.8-4.2 4-9.2 4-4.7 0-7-0.9-6-3.7l0.1-0.4h5.5l-0.1 0.3c-0.4 1.1 0.3 1.5 1.4 1.5 1.1 0 2-0.5 2.2-1.3 1-2.5-8.4-1.3-6.8-5.9 1-2.6 3.8-4.1 8.6-4.1 5 0 6.7 1.2 5.7 4z"/><path fill-rule="evenodd" class="d" d="m154.9 55h7.1l0.7 13.1h-6l0.2-2.3h-4.5l-1.4 2.3h-6.1zm2.7 2.6h-0.1l-3.5 5.6h3.2z"/><path class="d" d="m168.1 55h6.3l0.9 8 2.9-8h5.3l-4.6 13.1h-6.3l-0.9-8.1h-0.1l-2.9 8.1h-5.3z"/><path class="d" d="m115.1 166.3v5.4l-2.9 2.8h-5.9l-2.7-2.7v-3h4.7v1.5h2v-2.3h-4.6l-2.2-2.2v-4.7l2.8-2.7h6l2.6 2.6v2.6h-4.5v-1h-2.1v1.5h4.7z"/><path class="d" d="m113.7 166.8l-1.5-1.4h-4.8l-0.5-0.5v-2.8l0.9-0.9h3.1l0.8 0.9v0.3h2v-0.6l-2-2.1h-4.7l-2 2.1v3.4l1.4 1.5h4.8l0.5 0.6v3.5l-1 0.9h-2.9l-0.9-0.9v-0.7h-1.9v1l2 2h4.5l2.2-2z"/><path class="d" d="m127.8 158.4v5.1h-4.3v-0.9h-2.1v1.7h3.8v4.1h-3.8v1.9h2.1v-1.2h4.3v5.4h-12.4v-4.2h1.1v-7.7h-1.1v-4.2z"/><path class="d" d="m126.4 159.7h-9.5v1.5h1.1v10.5h-1.1v1.4h9.5v-2.5h-1.5v1.1h-5v-4.7h3.9v-1.3h-3.9v-4.5h5v1h1.5z"/><path class="d" d="m140 161.2v10.5l-2.9 2.8h-6.1l-2.8-2.8v-10.6l2.8-2.7h6.1z"/><path class="d" d="m138.5 161.8l-2.1-2.1h-4.7l-2.1 2.1v9.2l1.9 2.1h4.9l2.1-2z"/><path class="d" d="m136.6 162.2v8.5l-1 1h-3.2l-0.9-1v-8.5l1-1h3.1z"/><path class="a" d="m135.1 162.6h-2.2v7.7h2.2z"/><path class="d" d="m154.3 158.4v4.2h-1.3v9.1l-2.8 2.8h-6l-2.8-2.8v-9.1h-1.2v-4.2h6.7v4h-0.6v7.9h1.9v-7.9h-0.6v-4z"/><path class="d" d="m152.9 159.7h-4v1.5h0.8v9.6l-1 0.9h-3l-0.8-0.9v-9.6h0.7v-1.5h-4v1.5h1.3v9.9l2 2h4.7l2-1.9v-10h1.3z"/><path class="d" d="m162.2 158.4v4.2h-1.3v7.7h1.8v-2.6h4.3v6.8h-12v-4.2h1.1v-7.7h-1.1v-4.2z"/><path class="d" d="m160.8 159.7h-4.4v1.5h1.1v10.5h-1.1v1.4h9.2v-4h-1.5v2.6h-4.6v-10.5h1.3z"/><path class="e" d="m133.9 32.3c30.8 0 57.6 17.3 71.2 42.7h5.3c-14-28.1-43-47.4-76.5-47.4-33.6 0-62.6 19.3-76.6 47.4h5.3c13.6-25.4 40.4-42.7 71.3-42.7z"/><path class="e" d="m133.9 193.9c-31.1 0-58-17.6-71.5-43.2h-5.4c13.9 28.4 43.1 47.9 76.9 47.9 33.7 0 62.9-19.5 76.8-47.9h-5.4c-13.5 25.6-40.4 43.2-71.4 43.2z"/><path class="a" d="m52 88.7v17.6l-2.9 3.2 2.9 3.2v18.5l-12 11.7h-39.1v-18.8h4.5v-27.5h-4.4v-18.7h40.2z"/><path class="a" d="m101.8 77.9v21.2h-19v-3.6h-6v4.7h14.8v17.9h-14.8v5.2h6v-3.7h18.9l0.1 22.3h-50.2v-18.3h4v-28.2h-3.7v-17.6z"/><path class="a" d="m141.4 77.9l14.2 46.3h5.8v18.7h-28.4v-17.7h3.9l-0.5-2h-10.6l-0.4 2h3.4v17.7h-27.2l0.1-23.3 5.1 5.4 15.5-47.1z"/><path class="a" d="m217 124.2v18.7h-27.4v-17.5h0.9l-2.5-6h-2.6v6h3.7v17.5h-28.3v-18.8h4.9v-27.5h-4.4v-18.7h39.7l11 11.1-0.2 19.2-5.2 5.3 4.7 10.7z"/><path class="a" d="m262.7 108.9l-0.2 22.5-11.9 11.5h-23.3l-11-10.9v-13.5h19.9v5.8h5.8v-6.7h-17.2l-8.9-9-0.1-19.3 11.6-11.4h24.3l10 10.2v12.6h-19.5v-4.3h-6.1v3.9l18.9 0.5z"/><path class="a" d="m57.1 94.7v16.8l-0.1 3.4 0.1 2.9-1.1 18.6-11.1 11-39.6-0.1-4.3-4.5 9.6-13.4v-27.6h-4.5v-18.8h39.7z"/><path class="a" d="m106.6 82.9v21.9h-19v-3.6h-6.1v2.7h15v19.9h-15v5.2h6.1v-4.3l19 0.2-0.1 22.5h-49.7l-5.9-6.2 9.5-11.9v-28.1h-4l45.3-23.3z"/><path class="a" d="m146.2 82.9l14.4 46.8h5.8v17.6l-39.5 0.1v-17.1h15.1l-0.6-1.9h-10.6l-0.4 1.9h3.5v17.1h-27.4v-17.7h5.4l29.5-51.8z"/><path class="a" d="m221.7 129.9v17.4h-32.9l5.9-16.5h0.9l-2.5-5.9h-2.7v5.9h3.8v16.5h-28.3v-17.4h4.8v-28h-4.5v-18.5h40.2l10.2 10.3v18.8l-5.4 5.4 5.2 11.2z"/><path class="a" d="m267.3 113.6v22.1l-11.9 11.7h-23.6l-10.2-10.2-0.4-13.2h20.1v5.5h5.7v-6.8l-17.1 0.1-8.7-9-0.6-19.6 11.5-11.3 24.3-0.3 10.1 10.3v12.1h-19.2v-3.4h-6.1v3.9h18.2z"/><path class="a" d="m266.1 114.1v21.1l-11.2 11h-22.7l-10.5-10.7v-11.4h18.2v5.6h7.6v-8.9h-17.9l-8.3-8.7v-18l10.9-10.7h23.3l9.9 10.1v10.3h-17.4v-4h-8.1v6h18.2z"/><path class="b" d="m55.8 94.5v16.3l-3.1 3.3 3.1 3v18l-11.4 11.1h-38l-4.2-4.4 8.6-12.1v-29.9l0.5-0.3-4.9-16.1h38.6z"/><path class="b" d="m3.3 141.4l7.9-11.2v-31.4h-4.5v-15.1l37.5 0.1 11 10.9v15.8l-3.4 3.6 3.4 3.4v8.3l-0.6-0.2-0.3 10.1-9.9 9.6h-37.3z"/><path class="e" d="m51.6 90.2v16.3l-2.9 3.1 2.9 3.1v18l-11.4 11.1h-38v-16.4h4.4v-30h-4.4v-16.3h38.6z"/><path class="a" d="m47.3 93.1l-9.8-9.8h-31.1v7.9h4.5v38.4h-4.5v8h30.6l10.3-10v-12.9l-6.4-5 6.4-4.9z"/><path class="e" d="m33.5 91.2l3.5 2.6v9.9l-3.3 2.2h-12.7v-14.7z"/><path class="e" d="m33.4 113.6l3.6 2.7v10.6l-3.9 2.7h-12.1v-16z"/><path class="b" d="m32.8 95.4h-7.5v6.3h7.5z"/><path class="b" d="m32.8 117.9h-7.5v7.5h7.5z"/><path class="b" d="m105.4 83.4v20.2h-17l0.1-3.8h-8l6.5-2.1 8.3 8.8v16h-14.8v7.2h8l12.7-8.9 4.2 4.4v21h-48.1l-4.2-4.4 10.3-4.1-1.8-37.9 2.6 0.8 37-21.5z"/><path class="b" d="m90.8 102.9l3.6 4v14.7h-14.8v9h9.7l11.8-8.5 3.4 3.4v19.8h-46.8l-3.9-4 8.6-10.8v-31.4h-4.2l42.4-19.3 3.9 4v18.9h-13.8z"/><path class="e" d="m101.2 79.1v20.1h-16.9v-3.8h-8v6.7h14.8v16h-14.8v7.3h8v-4.6h16.9v21h-48.1v-16.4h4.3v-30h-4.3v-16.3z"/><path class="a" d="m96.9 83.3h-39.5v7.9h4.3v38.4h-4.3v7.9h39.5v-12.4h-8.3v4.5h-16.6v-15.8h14.8v-7.4h-14.8v-15.2h16.6v3.7h8.3z"/><path class="a" d="m143.6 115h-18.6v21.2h18.6z"/><path class="a" d="m200.7 115h-18.6v21.2h18.6z"/><path class="a" d="m250.7 117.2h-18.6v21.1h18.6z"/><path class="a" d="m200.6 115h-18.5v21.2h18.5z"/><path class="a" d="m250.6 117.2h-18.6v21.1h18.6z"/><path class="b" d="m145.2 83.4l13.5 44 2.1-2 4.2 4.3v16.5h-26.3l-4-4.3 8-11.5-1.1-3.6h-12l-1.1 3.6h3.9l7.3 15.8h-32.8l-4.2-4.4 9.3-12.1 29-50.6z"/><path class="b" d="m144.4 83.9l14.3 46.6 1.7-4.2 3.7 3.8v15.2h-28.4l-4.1-8.2 12.6-6-1.8-5.3h-13.6l-1.6 5.3h4.2l7.2 14.2h-31.4l-3.8-4 9.8-10.6 27.5-50.6z"/><path class="b" d="m143.6 115h-18.6v21.2h18.6z"/><path class="e" d="m141 79.1l14.2 46.3h5.6v16.4h-26.3v-15.8h4l-1.1-3.5h-12l-1.1 3.5h3.9v15.8h-25.5v-16.4h5.1l15.4-46.3z"/><path class="a" d="m137.8 83.4h-11.5l-15.3 46.2h-4.1v8h17v-8h-5.4l4-11.4h17.9l3.8 11.4h-5.5v8h17.8v-8h-4.5z"/><path class="e" d="m132.1 90.2l7.3 23.3h-15.9l7.6-23.3z"/><path class="b" d="m131.6 102.8l-2.2 6.5h4.2z"/><path class="a" d="m215.7 126.3l4.3 4.3v14.7h-23.7l-7.9-8.5 9.9-5.3-4.4-9.6h-5.4v9.6h3.3l6 13.8h-30.3l-4.3-4.3 8.9-10.4v-31.4h-4.6v-15.1l36.9 0.2 10.2 10.4v16.8l-5.9 6.1 5 10.1z"/><path class="a" d="m200.7 115h-18.6v21.2h18.6z"/><path class="a" d="m250.7 117.2h-18.6v21.1h18.6z"/><path class="b" d="m216.3 125.4l4.2 4.2 0.1 16.6h-25.1l-8.3-8.9 9.7-6.5-3.6-8h-4.1v8h3.3l6 15.4h-31.6l-4.4-4.4 8.7-11.9v-30l-2-0.3-2.5-16 38.1-0.3 10.6 10.9 0.1 17.9-5.7 5.6 4.6 9.8z"/><path class="b" d="m266.1 114.1v21.1l-11.2 11h-22.7l-10.4-10.6-0.1-11.5h18.1v5.6h7.7v-8.9h-17.9l-8.4-8.7v-17.9l10.9-10.8h23.4l9.8 10.1v10.3h-17.4v-4h-8.1v6h18.3z"/><path class="b" d="m266.1 114.1v21.1l-11.2 11h-22.7l-10.4-10.6-0.1-11.5h18.1v5.6h7.7v-8.9h-17.9l-8.4-8.7v-17.9l10.9-10.8h23.4l9.8 10v10.4h-17.4v-4h-8.1l-2.2 3.8h18.3z"/><path class="b" d="m215.6 126.1l4 4.1 0.1 15.1h-23.6l-7.9-8.5 9.9-5.3-4.4-9.6h-5.4v9.6h3.3l6 13.8h-30.5l-4.3-4.3 9.1-10.4v-31.4h-4.6v-15.1l36.9 0.1 10.2 10.4v17l-5.8 5.9 4.8 10.3c0.1 0.2 2.2-1.7 2.2-1.7z"/><path class="b" d="m265.2 114.4v20.4l-10.6 10.5h-22l-10.2-10.3 0.1-10.1h16.7v5.6h9.2v-10.6h-18.5l-7.8-8.1v-17.2l10.6-10.5h22.2l9.6 9.7v9.2h-15.6v-4h-9.9v7.6l18.4-0.2z"/><path class="b" d="m200.6 115h-18.5v21.2h18.5z"/><path class="b" d="m250.6 117.2h-18.6v21.1h18.6z"/><path class="b" d="m254 86.4h-18.6v21.1h18.6z"/><path class="e" d="m216.3 125.4v16.4h-25v-15.5h1.4l-3.6-8h-4.1v8h3.3v15.5h-25.8v-16.4h4.4v-29.9h-4.4v-16.4h38.1l10.7 10.8v17.6l-5.9 5.8 5.6 12.1z"/><path class="a" d="m212.1 129.6h-3.8l-8-17.2 6.7-6.8v-14l-8.2-8.3h-32v7.8h4.4v38.5h-4.4v7.9h17.2v-7.9h-3.3v-15.6l11.2 0.1 7.3 15.5h-3.6v7.9h16.5z"/><path class="e" d="m197.4 94.6v7.6l-4 4h-12v-15.1h12.4z"/><path class="b" d="m193.1 95.4h-7.4v6.5h7.4z"/><path class="e" d="m261.9 109.8v21l-11.2 11h-22.8l-10.4-10.6v-11.5h18.2v5.7h7.6v-9h-17.9l-8.4-8.6v-18l10.9-10.7h23.4l9.8 10v10.4h-17.4v-4h-8v6h18.2z"/><path class="a" d="m257.6 111.5l-5.5-5.8h-18.6l-2.1-2.1v-8.9l3.6-3.5h9.7l3.3 3.5v0.5h9.7v-3.5l-8.3-8.4h-19.7l-8.4 8.4v14.3l5.9 6.2h18.4l1.9 2.1v11.7l-3.7 3.6h-8.9l-3.5-3.6v-2h-9.6v5.5l8 8.1 19.1-0.1 8.7-8.4z"/></svg>