<svg width="90" height="90" viewBox="0 0 90 90" fill="none" xmlns="http://www.w3.org/2000/svg">
<path d="M45 89C69.3005 89 89 69.3005 89 45C89 20.6995 69.3005 1 45 1C20.6995 1 1 20.6995 1 45C1 69.3005 20.6995 89 45 89Z" fill="#F0F0F0"/>
<path d="M45 13.603C67.1105 13.603 85.4623 29.9648 88.5578 51.4121C88.7789 49.4221 89 47.2111 89 45.2211C89 20.6784 69.3216 1 45 1C20.6784 1 1 20.6784 1 45C1 47.2111 1.22111 49.201 1.44221 51.191C4.53769 29.9648 22.8894 13.603 45 13.603Z" fill="white"/>
<path d="M45 89C69.3005 89 89 69.3005 89 45C89 20.6995 69.3005 1 45 1C20.6995 1 1 20.6995 1 45C1 69.3005 20.6995 89 45 89Z" stroke="#45413C" stroke-miterlimit="10" stroke-linecap="round" stroke-linejoin="round"/>
<path d="M56.0552 2.3269C56.0552 2.54801 52.9597 23.9952 63.7939 40.3571C73.0803 54.0656 84.5778 54.7289 87.8944 54.5078" stroke="#45413C" stroke-miterlimit="10" stroke-linecap="round" stroke-linejoin="round"/>
<path d="M2.76886 32.3972C4.97992 32.8394 21.3417 37.0404 30.8493 49.6434C39.9146 61.8043 36.598 83.2515 35.7136 88.1158" stroke="#45413C" stroke-miterlimit="10" stroke-linecap="round" stroke-linejoin="round"/>
<path d="M59.5931 10.7288H51.6333C49.8644 10.7288 48.5378 9.18106 48.5378 7.63332C48.5378 5.86447 50.0855 4.53784 51.6333 4.53784H59.5931C61.3619 4.53784 62.6885 6.08558 62.6885 7.63332C62.6885 9.40216 61.1408 10.7288 59.5931 10.7288Z" fill="#FF866E" stroke="#45413C" stroke-miterlimit="10" stroke-linecap="round" stroke-linejoin="round"/>
<path d="M60.6985 24.4373L52.9598 25.7639C51.191 25.985 49.6432 24.8795 49.4221 23.1106C49.201 21.3418 50.3066 19.794 52.0754 19.5729L59.8141 18.2463C61.5829 18.0252 63.1307 19.1307 63.3518 20.8996C63.5729 22.4473 62.2463 23.995 60.6985 24.4373Z" fill="#FF6242" stroke="#45413C" stroke-miterlimit="10" stroke-linecap="round" stroke-linejoin="round"/>
<path d="M23.3317 37.2608L19.3518 44.1151C18.4674 45.6628 16.4774 46.105 14.9297 45.2206C13.382 44.3362 12.9398 42.3462 13.8242 40.7985L17.8041 33.9442C18.6885 32.3965 20.6784 31.9543 22.2262 32.8387C23.7739 33.7231 24.2161 35.7131 23.3317 37.2608Z" fill="#FF6242" stroke="#45413C" stroke-miterlimit="10" stroke-linecap="round" stroke-linejoin="round"/>
<path d="M11.392 30.8488L9.18099 38.3664C8.73878 40.1352 6.96993 41.0197 5.20109 40.3563C3.43224 39.9141 2.54782 38.1453 3.21114 36.3764L5.42219 28.8589C5.8644 27.09 7.63325 26.2056 9.40209 26.8689C10.9498 27.5322 12.0554 29.3011 11.392 30.8488Z" fill="#FF866E" stroke="#45413C" stroke-miterlimit="10" stroke-linecap="round" stroke-linejoin="round"/>
<path d="M34.3869 46.9906L28.4171 52.2971C27.0905 53.4026 25.1005 53.4026 23.995 52.076C22.8895 50.7494 22.8895 48.7594 24.2161 47.6539L30.1859 42.3473C31.5126 41.2418 33.5025 41.2418 34.608 42.5684C35.7136 43.8951 35.4925 45.885 34.3869 46.9906Z" fill="#FF6242" stroke="#45413C" stroke-miterlimit="10" stroke-linecap="round" stroke-linejoin="round"/>
<path d="M40.1356 61.1406L32.618 63.3516C30.8492 63.7938 29.3015 62.9094 28.6381 61.1406C28.1959 59.3717 29.0804 57.824 30.8492 57.1607L38.3668 54.9496C40.1356 54.5074 41.6834 55.3918 42.3467 57.1607C42.7889 58.9295 41.9045 60.6983 40.1356 61.1406Z" fill="#FF6242" stroke="#45413C" stroke-miterlimit="10" stroke-linecap="round" stroke-linejoin="round"/>
<path d="M41.4624 75.5123L33.5026 75.2912C31.7337 75.2912 30.4071 73.7435 30.4071 71.9746C30.4071 70.2058 31.9548 68.8792 33.7237 68.8792L41.6835 69.1003C43.4523 69.1003 44.779 70.648 44.779 72.4168C44.5579 74.1857 43.2312 75.7334 41.4624 75.5123Z" fill="#FF6242" stroke="#45413C" stroke-miterlimit="10" stroke-linecap="round" stroke-linejoin="round"/>
<path d="M39.4723 88.3362L31.7337 86.7885C29.9648 86.3463 28.8593 84.7985 29.3015 83.0297C29.7437 81.2608 31.2914 80.1553 33.0603 80.5975L40.799 82.1453C42.5678 82.5875 43.6734 84.1352 43.2311 85.904C43.01 87.4518 41.2412 88.5573 39.4723 88.3362Z" fill="#FF6242" stroke="#45413C" stroke-miterlimit="10" stroke-linecap="round" stroke-linejoin="round"/>
<path d="M66.005 36.8189L59.3719 41.0199C57.8241 41.9043 56.0553 41.4621 54.9498 40.1355C54.0653 38.5877 54.5075 36.8189 55.8342 35.7134L62.4673 31.5124C64.0151 30.628 65.7839 31.0702 66.8895 32.3968C67.995 33.9445 67.5528 35.7134 66.005 36.8189Z" fill="#FF6242" stroke="#45413C" stroke-miterlimit="10" stroke-linecap="round" stroke-linejoin="round"/>
<path d="M75.5125 46.5478L71.0904 53.181C70.206 54.7287 68.216 54.9498 66.6683 54.0654C65.1206 53.181 64.8995 51.191 65.7839 49.6433L70.206 43.0101C71.0904 41.4624 73.0804 41.2413 74.6281 42.1257C75.9547 43.2312 76.397 45.0001 75.5125 46.5478Z" fill="#FF6242" stroke="#45413C" stroke-miterlimit="10" stroke-linecap="round" stroke-linejoin="round"/>
<path d="M88.1156 52.0756L86.1257 59.5932C85.6835 61.362 83.9146 62.2464 82.3669 61.8042C80.5981 61.362 79.7136 59.5932 80.1558 58.0454L82.1458 50.5278C82.588 48.759 84.3568 47.8746 85.9046 48.3168C87.4523 48.5379 88.5578 50.3067 88.1156 52.0756Z" fill="#FF6242" stroke="#45413C" stroke-miterlimit="10" stroke-linecap="round" stroke-linejoin="round"/>
</svg>
