<svg version="1.2" xmlns="http://www.w3.org/2000/svg" viewBox="0 0 24 24" width="24" height="24"><defs><linearGradient id="P" gradientUnits="userSpaceOnUse"/><radialGradient id="g1" cx="0" cy="0" r="1" href="#P" gradientTransform="matrix(21.636,0,0,21.636,10.088,7.122)"><stop stop-color="#fefefe"/><stop offset="1" stop-color="#787a7c"/></radialGradient></defs><style>.a{fill:url(#g1)}.b{fill:#999}.c{fill:#ec1c24}</style><path class="a" d="m23.9 11.7c0 6.4-5.2 11.6-11.5 11.6-6.5 0-11.6-5.2-11.6-11.6 0-6.4 5.1-11.6 11.6-11.6 6.3 0 11.5 5.2 11.5 11.6z"/><path class="b" d="m11.9 15.2q-0.5 0.1-0.9 0.2 0 0 0.1 0.1c0 0 0.1 0.1 0 0.2q0 0 0 0 0.4-0.1 0.9-0.1 0.1-0.1 0.1-0.2-0.1-0.1-0.2-0.2z"/><path class="b" d="m5.8 18.9q-0.3 0.4-0.5 0.8 0 0 0 0c0.1-0.1 0.2 0 0.3 0.1q0 0 0 0 0.2-0.4 0.5-0.7 0-0.1-0.1-0.3-0.1 0.1-0.2 0.1z"/><path class="b" d="m13.4 15.2q-0.5-0.1-1 0 0.1 0 0.1 0c0.1 0.1 0.1 0.2 0 0.3q0 0 0 0 0.4 0 0.9 0 0.1-0.1 0.2-0.2-0.1 0-0.2-0.1z"/><path class="b" d="m7.9 16.8q-0.4 0.3-0.8 0.6 0.1 0 0.1 0c0.1 0 0.2 0.1 0.2 0.2q0 0.1 0 0.1 0.3-0.3 0.7-0.6 0-0.1 0-0.2-0.1 0-0.2-0.1z"/><path class="b" d="m10.5 15.5q-0.2 0.1-0.5 0.2-0.2 0.1-0.4 0.2 0 0 0.1 0c0.1 0 0.1 0.1 0.1 0.2q0 0.1-0.1 0.1 0.2-0.1 0.4-0.2 0.3-0.1 0.5-0.1 0.1-0.1 0.1-0.2-0.1-0.1-0.2-0.2z"/><path class="b" d="m9.1 16.1q-0.4 0.2-0.8 0.5 0 0 0.1 0c0.1 0 0.1 0.1 0.1 0.2q0 0 0 0 0.4-0.2 0.8-0.4 0-0.1 0.1-0.2-0.1-0.1-0.3-0.1z"/><path class="b" d="m19.8 18.5q-0.3-0.4-0.6-0.7 0 0 0 0.1c0 0.1-0.1 0.1-0.2 0.2q0 0 0 0 0.3 0.3 0.6 0.7 0.1 0 0.2 0 0-0.2 0-0.3z"/><path class="b" d="m15 15.4q-0.5-0.2-1.1-0.2 0 0 0 0.1c0.1 0 0.1 0.1 0 0.2q0 0 0 0 0.5 0.1 1 0.2 0.1 0 0.2-0.1 0-0.1-0.1-0.2z"/><path class="b" d="m20.4 19.2q-0.1-0.1-0.3-0.3 0 0 0 0.1c0 0.1-0.1 0.1-0.2 0.1q0 0 0 0 0.1 0.2 0.2 0.3 0.1 0.3 0.3 0.5 0 0 0.1 0.1 0.1-0.1 0.1-0.2 0 0 0.1-0.1-0.2-0.2-0.3-0.5z"/><path class="b" d="m18.8 17.4q-0.3-0.3-0.7-0.6 0 0.1 0 0.1c0 0.1 0 0.2-0.1 0.2q-0.1 0-0.1 0 0.4 0.3 0.7 0.6 0.1 0 0.2 0 0-0.1 0-0.3z"/><path class="b" d="m16.4 15.8q-0.5-0.2-0.9-0.3 0 0 0 0.1c0.1 0.1 0 0.2 0 0.2q-0.1 0-0.1 0 0.4 0.2 0.9 0.4 0.1-0.1 0.2-0.1-0.1-0.1-0.1-0.3z"/><path class="b" d="m17.7 16.5q-0.4-0.2-0.9-0.5 0.1 0.1 0.1 0.1c0 0.1 0 0.2-0.1 0.2q-0.1 0.1-0.1 0.1 0.4 0.2 0.8 0.4 0.1 0 0.2 0 0-0.1 0-0.3z"/><path class="b" d="m7 17.8q-0.1 0-0.2 0-0.4 0.3-0.7 0.7 0 0 0.1 0 0.1 0 0.2 0.1 0 0.1 0 0.1 0.3-0.4 0.6-0.7 0-0.1 0-0.1 0-0.1 0-0.1z"/><path class="b" d="m5 20.1q-0.1 0.2-0.2 0.4 0.2 0.2 0.3 0.3 0.1-0.3 0.3-0.5-0.1-0.1-0.1-0.3-0.1 0.1-0.3 0.1z"/><path class="c" d="m19.4 19.7c-0.1 0-0.1 0.1-0.2 0.2 0 0.1 0.1 0.1 0.2 0.2q0.4 0 0.8 0.1 0.2-0.1 0.3-0.2-0.1-0.1-0.1-0.1-0.5-0.1-1-0.2z"/><path class="c" d="m21.1 18.7c0 0-0.1 0-0.2 0.1q-0.1 0.5-0.2 0.9-0.1 0.1-0.1 0.1 0.3-0.3 0.6-0.6 0-0.1 0.1-0.3c0-0.1-0.1-0.2-0.2-0.2z"/><path class="c" d="m20.1 19q0-0.1 0-0.1 0.2-0.6 0.2-1.3c0-0.1-0.1-0.2-0.2-0.2-0.1 0-0.2 0.1-0.2 0.2q0 0.5-0.1 0.9 0 0.1 0 0.3-0.1 0-0.2 0-0.4-0.1-0.8-0.1-0.1 0-0.2 0c-0.1 0-0.1 0.1-0.1 0.2 0 0.1 0.1 0.2 0.1 0.2q0.1 0 0.2 0 0.5 0 1.1 0 0 0 0 0c0.1 0 0.2 0 0.2-0.1z"/><path class="c" d="m19.2 17.9q0-0.1 0-0.1 0-0.2 0-0.4 0-0.4 0-0.9c-0.1-0.1-0.1-0.2-0.2-0.2-0.1 0-0.2 0.1-0.2 0.2q0 0.5 0 0.9 0 0.2 0 0.3-0.1 0-0.2 0-0.5 0-0.9 0.1c-0.1 0-0.2 0.1-0.2 0.2 0.1 0.1 0.2 0.2 0.2 0.2q0.6-0.1 1.3-0.1 0 0 0 0c0.1-0.1 0.2-0.1 0.2-0.2z"/><path class="c" d="m18.1 16.9q0 0 0-0.1-0.1-0.6-0.3-1.3c0-0.1-0.1-0.1-0.2-0.1-0.1 0-0.1 0.1-0.1 0.2q0.1 0.5 0.2 0.9 0 0.2 0 0.3-0.1 0-0.2 0-0.5 0.1-0.9 0.3-0.1 0.1-0.1 0.2c0 0.1 0.1 0.2 0.2 0.1q0.6-0.2 1.2-0.3 0 0 0.1 0c0.1 0 0.1-0.1 0.1-0.2z"/><path class="c" d="m16.9 16.1q0 0-0.1-0.1-0.1-0.6-0.4-1.2c-0.1-0.1-0.2-0.1-0.3-0.1-0.1 0.1-0.1 0.2-0.1 0.3q0.3 0.4 0.4 0.8 0 0.2 0.1 0.3-0.1 0-0.2 0.1-0.5 0.1-0.9 0.4c0 0-0.1 0.1 0 0.2 0 0.1 0.1 0.1 0.2 0.1q0.5-0.3 1.1-0.5 0 0 0.1-0.1c0.1 0 0.1-0.1 0.1-0.2z"/><path class="c" d="m15.5 15.6q0-0.1 0-0.1-0.3-0.6-0.7-1.1c-0.1-0.1-0.2-0.1-0.3-0.1 0 0.1-0.1 0.2 0 0.3q0.3 0.4 0.5 0.8 0.1 0.1 0.1 0.2-0.1 0.1-0.2 0.1-0.3 0.3-0.7 0.6c-0.1 0-0.1 0.1 0 0.2 0 0.1 0.2 0.1 0.2 0q0.5-0.3 1-0.7 0 0 0.1 0c0 0 0.1-0.1 0-0.2z"/><path class="c" d="m13.9 15.3q0-0.1 0-0.1-0.4-0.5-0.9-1c-0.1-0.1-0.2-0.1-0.3 0 0 0.1 0 0.2 0.1 0.3q0.3 0.3 0.6 0.7 0.1 0.1 0.2 0.1-0.1 0.1-0.2 0.2-0.3 0.3-0.6 0.7c-0.1 0.1-0.1 0.2 0 0.2 0.1 0.1 0.2 0.1 0.3 0q0.3-0.4 0.8-0.9 0 0 0 0c0.1-0.1 0.1-0.2 0-0.2z"/><path class="c" d="m12.5 15.2q0 0-0.1 0-0.5-0.5-1-0.8c-0.1-0.1-0.2-0.1-0.3 0 0 0.1 0 0.2 0.1 0.3q0.4 0.2 0.7 0.5 0.1 0.1 0.2 0.2 0 0.1-0.1 0.2-0.3 0.4-0.5 0.8c-0.1 0 0 0.1 0.1 0.2 0.1 0 0.2 0 0.2-0.1q0.3-0.5 0.7-1 0 0 0 0c0.1-0.1 0.1-0.2 0-0.3z"/><path class="c" d="m11.1 15.5q-0.1-0.1-0.1-0.1-0.6-0.3-1.2-0.6c-0.1-0.1-0.2 0-0.2 0.1-0.1 0.1 0 0.2 0.1 0.2q0.4 0.2 0.8 0.4 0.1 0.1 0.2 0.2 0 0.1-0.1 0.2-0.2 0.4-0.3 0.8c-0.1 0.1 0 0.2 0.1 0.3 0.1 0 0.2-0.1 0.2-0.2q0.2-0.5 0.5-1.1 0 0 0 0c0.1-0.1 0-0.2 0-0.2z"/><path class="c" d="m9.7 15.9q-0.1 0-0.1 0-0.6-0.3-1.3-0.5c-0.1 0-0.1 0.1-0.2 0.2 0 0.1 0.1 0.2 0.1 0.2q0.5 0.1 0.9 0.3 0.2 0 0.3 0.1-0.1 0.1-0.1 0.2-0.1 0.4-0.2 0.9c0 0.1 0 0.2 0.1 0.2 0.1 0 0.2 0 0.2-0.1q0.1-0.6 0.3-1.2 0.1 0 0.1-0.1c0-0.1 0-0.2-0.1-0.2z"/><path class="c" d="m8.4 16.6q-0.1 0-0.1 0-0.6-0.2-1.3-0.3-0.2 0-0.2 0.2c0 0.1 0.1 0.2 0.2 0.2q0.4 0 0.9 0.1 0.1 0.1 0.2 0.1 0 0.1 0 0.2-0.1 0.5-0.1 0.9c0 0.1 0.1 0.2 0.2 0.2 0.1 0 0.2-0.1 0.2-0.2q0-0.5 0.1-1.2 0 0 0 0c0-0.1 0-0.2-0.1-0.2z"/><path class="c" d="m7.2 17.4q0 0-0.1 0-0.4 0-0.8 0-0.3 0-0.5 0c-0.1 0-0.2 0.1-0.2 0.2 0 0.1 0.1 0.2 0.2 0.2q0.3-0.1 0.5-0.1 0.2 0 0.5 0.1 0.1 0 0.2 0 0 0 0 0.1 0 0 0 0.1 0 0.5 0.1 0.9c0 0.1 0.1 0.2 0.2 0.2 0.1 0 0.1-0.1 0.1-0.2q0-0.5 0-1 0-0.1 0-0.2 0 0 0-0.1c0-0.1-0.1-0.2-0.2-0.2z"/><path class="c" d="m6.2 18.5q-0.1 0-0.1 0-0.6 0-1.3 0.2c-0.1 0-0.2 0.1-0.1 0.2 0 0.1 0.1 0.1 0.2 0.1q0.4-0.1 0.9-0.1 0.1 0 0.2-0.1 0.1 0.2 0.1 0.3 0.1 0.4 0.2 0.9c0 0.1 0.1 0.1 0.2 0.1 0.1 0 0.2-0.1 0.1-0.2q-0.1-0.6-0.2-1.2 0 0 0-0.1-0.1-0.1-0.2-0.1z"/><path class="c" d="m5.3 19.7q0 0 0 0-0.5 0.1-1 0.3 0.1 0.1 0.2 0.3 0.3-0.1 0.5-0.2 0.2 0 0.3-0.1 0 0.2 0.1 0.3 0.1 0.4 0.3 0.8c0.1 0.1 0.2 0.1 0.3 0.1 0-0.1 0.1-0.2 0-0.3q-0.2-0.5-0.4-1.1 0 0 0 0c-0.1-0.1-0.2-0.2-0.3-0.1z"/><path class="b" d="m6.6 5.5q0 0 0 0 0.3 0.3 0.7 0.6 0.1-0.1 0.2-0.1 0-0.1 0-0.2-0.4-0.3-0.7-0.6 0 0 0 0.1c0 0.1-0.1 0.2-0.2 0.2z"/><path class="b" d="m7.8 6.3q0 0-0.1 0 0.4 0.3 0.9 0.5 0.1 0 0.2-0.1 0-0.1-0.1-0.2-0.4-0.2-0.8-0.5 0 0.1 0 0.1c0 0.1 0 0.2-0.1 0.2z"/><path class="b" d="m5.6 4.4q0 0-0.1 0 0.3 0.4 0.7 0.7 0.1 0 0.2 0 0-0.1 0-0.2-0.3-0.4-0.6-0.7 0 0 0 0.1c0 0.1-0.1 0.1-0.2 0.1z"/><path class="b" d="m4.9 3.1c0 0.1-0.1 0.2-0.2 0.1q0 0 0 0 0.2 0.4 0.5 0.8 0.1 0 0.2 0.1 0.1-0.2 0.1-0.3-0.3-0.4-0.5-0.8 0 0.1-0.1 0.1z"/><path class="b" d="m18.6 5q0 0.1 0 0.1 0.4-0.4 0.7-0.7-0.1-0.2-0.1-0.3-0.1 0-0.2 0-0.3 0.4-0.6 0.7 0 0.1 0.1 0.1c0 0 0.1 0 0.1 0.1z"/><path class="b" d="m19.6 3.9q0 0 0 0.1 0.1-0.2 0.2-0.4 0.2-0.2 0.3-0.5 0 0 0 0-0.1-0.1-0.2-0.2-0.1 0.1-0.1 0.1-0.2 0.2-0.3 0.4-0.1 0.2-0.2 0.4 0 0 0.1 0c0.1 0 0.1 0 0.2 0.1z"/><path class="b" d="m16.3 6.8q0 0 0 0 0.4-0.2 0.8-0.5 0-0.1 0.1-0.2-0.2 0-0.3-0.1-0.4 0.3-0.8 0.5 0 0 0.1 0.1c0.1 0 0.1 0.1 0.1 0.2z"/><path class="b" d="m17.5 6q0 0 0 0 0.4-0.2 0.8-0.6 0 0 0-0.1 0 0 0-0.1-0.2 0-0.3 0-0.3 0.3-0.7 0.6 0 0 0.1 0c0.1 0 0.1 0.1 0.1 0.2z"/><path class="b" d="m9.1 7q0 0-0.1 0 0.2 0.1 0.4 0.2 0.3 0.1 0.5 0.1 0.1 0 0.2-0.1 0-0.1-0.1-0.2-0.2-0.1-0.4-0.1-0.2-0.1-0.5-0.2 0.1 0 0.1 0.1c0 0.1 0 0.2-0.1 0.2z"/><path class="b" d="m15 7.3q-0.1 0.1-0.1 0.1 0.5-0.2 0.9-0.4 0.1-0.1 0.1-0.2-0.1 0-0.2-0.1-0.5 0.2-0.9 0.3 0 0.1 0.1 0.1c0.1 0 0.1 0.1 0.1 0.2z"/><path class="b" d="m10.5 7.5q-0.1 0-0.1 0 0.5 0.1 1 0.2 0.1-0.1 0.2-0.2-0.1-0.1-0.2-0.2-0.5-0.1-0.9-0.2 0 0.1 0 0.1c0.1 0.1 0 0.2 0 0.3z"/><path class="b" d="m11.9 7.7q0 0 0 0 0.3 0 0.6 0 0.2 0 0.3 0 0.1-0.1 0.2-0.1-0.1-0.1-0.2-0.2-0.5 0-0.9 0 0 0 0 0c0.1 0.1 0.1 0.2 0 0.3z"/><path class="b" d="m13.4 7.7q0 0-0.1 0 0.6-0.1 1.1-0.2 0.1-0.1 0.2-0.2-0.1-0.1-0.3-0.1-0.5 0.1-1 0.1 0 0.1 0 0.1c0.1 0.1 0.1 0.2 0.1 0.3z"/><path class="c" d="m20.3 4c0.1 0.1 0.2 0.2 0.3 0.2 0.1 0 0.1-0.1 0.1-0.2q-0.1-0.2-0.1-0.4-0.3-0.3-0.5-0.5 0 0 0 0 0.1 0.5 0.2 0.9z"/><path class="c" d="m19.6 2.7q-0.4 0.1-0.8 0.1c-0.1 0-0.2 0.1-0.1 0.2 0 0.1 0.1 0.2 0.2 0.2q0.4-0.1 0.9-0.2 0 0 0.1-0.1-0.1-0.1-0.3-0.2z"/><path class="c" d="m19.3 4.4q0 0.4 0.1 0.9c0 0.1 0 0.2 0.1 0.2 0.1 0 0.2-0.1 0.2-0.2q0-0.7-0.1-1.3 0-0.1 0-0.1c-0.1-0.1-0.1-0.1-0.2-0.1q-0.1 0-0.1 0-0.5 0-0.9 0-0.2 0-0.3 0c-0.1 0-0.2 0.1-0.2 0.2 0 0.1 0.1 0.2 0.2 0.2q0.1 0 0.3 0 0.3 0 0.6-0.1 0.1 0 0.2 0 0 0.1 0.1 0.3z"/><path class="c" d="m18.3 5.3q0 0.1 0 0.1 0 0.5-0.1 1c0 0.1 0.1 0.2 0.2 0.2 0.1 0 0.2-0.1 0.2-0.2q0-0.5 0-1.1 0-0.1 0-0.2 0 0 0-0.1c0-0.1-0.1-0.1-0.1-0.1q-0.1 0-0.1-0.1-0.6 0-1.2-0.1c-0.1 0-0.2 0.1-0.2 0.2-0.1 0 0 0.1 0.1 0.2q0.5 0 0.9 0.1 0.1 0 0.3 0 0 0.1 0 0.1z"/><path class="c" d="m17.1 6.3q-0.1 0.5-0.2 1c0 0.1 0 0.2 0.1 0.2 0.1 0 0.2 0 0.3-0.1q0.1-0.7 0.2-1.4 0 0 0 0c0-0.1 0-0.2-0.1-0.2q-0.1 0-0.1 0-0.6-0.1-1.1-0.4c-0.1 0-0.2 0.1-0.3 0.2 0 0.1 0 0.2 0.1 0.2q0.5 0.1 0.9 0.2 0.1 0.1 0.3 0.1-0.1 0.1-0.1 0.2z"/><path class="c" d="m15.8 7q-0.1 0.5-0.3 0.9c-0.1 0.1 0 0.2 0.1 0.3 0 0 0.1 0 0.2-0.1q0.3-0.6 0.5-1.3 0 0 0 0c0-0.1 0-0.2-0.1-0.2q-0.1-0.1-0.1-0.1-0.6-0.2-1.1-0.5c0 0-0.1 0-0.2 0.1 0 0.1 0 0.2 0.1 0.2q0.4 0.2 0.8 0.4 0.1 0.1 0.2 0.1 0 0.1-0.1 0.2z"/><path class="c" d="m14.4 7.5q-0.2 0.4-0.5 0.8c0 0.1 0 0.2 0.1 0.3 0 0 0.2 0 0.2-0.1q0.4-0.5 0.7-1.1 0 0 0.1-0.1c0-0.1 0-0.2-0.1-0.2q-0.1 0-0.1-0.1-0.5-0.3-0.9-0.7c-0.1 0-0.2 0-0.3 0.1-0.1 0-0.1 0.2 0 0.2q0.4 0.3 0.7 0.6 0.2 0 0.3 0.1-0.1 0.1-0.2 0.2z"/><path class="c" d="m12.8 7.7q-0.3 0.4-0.6 0.7c-0.1 0.1-0.1 0.2 0 0.3 0 0 0.1 0 0.2 0q0.5-0.5 0.9-1 0.1 0 0.1 0c0-0.1 0-0.2-0.1-0.3q0 0 0-0.1-0.5-0.4-0.8-0.8c-0.1-0.1-0.2-0.1-0.3-0.1 0 0.1-0.1 0.2 0 0.3q0.3 0.3 0.6 0.7 0.1 0.1 0.2 0.2-0.1 0-0.2 0.1z"/><path class="c" d="m11.4 7.7q-0.4 0.3-0.8 0.5c-0.1 0.1-0.1 0.2-0.1 0.3 0.1 0 0.2 0.1 0.3 0q0.6-0.4 1.1-0.8 0 0 0 0c0.1-0.1 0.1-0.2 0-0.3q0 0 0 0-0.4-0.5-0.7-1c0-0.1-0.1-0.2-0.2-0.1-0.1 0-0.1 0.1-0.1 0.2q0.2 0.4 0.5 0.8 0.1 0.1 0.2 0.2-0.1 0.1-0.2 0.2z"/><path class="c" d="m9.9 7.3q-0.4 0.3-0.8 0.5c-0.1 0-0.1 0.1-0.1 0.2 0 0.1 0.1 0.1 0.2 0.1q0.7-0.3 1.2-0.6 0 0 0.1 0c0-0.1 0.1-0.2 0-0.3q0 0 0-0.1-0.3-0.5-0.5-1.1c0-0.1-0.1-0.1-0.2-0.1-0.1 0.1-0.2 0.2-0.1 0.3q0.1 0.4 0.3 0.8 0.1 0.1 0.1 0.2-0.1 0.1-0.2 0.1z"/><path class="c" d="m8.6 6.8q-0.5 0.2-0.9 0.3c-0.1 0-0.2 0.1-0.2 0.2 0.1 0.1 0.2 0.2 0.3 0.1q0.6-0.1 1.2-0.4 0.1 0 0.1 0c0.1 0 0.1-0.1 0.1-0.2q0-0.1-0.1-0.1-0.1-0.6-0.2-1.2c-0.1-0.1-0.2-0.1-0.3-0.1-0.1 0-0.1 0.1-0.1 0.2q0.1 0.4 0.2 0.9 0.1 0.1 0.1 0.2-0.1 0.1-0.2 0.1z"/><path class="c" d="m7.3 6.1q-0.4 0.1-0.9 0.1c-0.1 0-0.2 0.1-0.2 0.2 0 0.1 0.1 0.2 0.2 0.2q0.7-0.1 1.3-0.3 0.1 0 0.1 0c0.1 0 0.1-0.1 0.1-0.2q0 0 0-0.1-0.1-0.6-0.1-1.2c0-0.1-0.1-0.1-0.2-0.1-0.1 0-0.2 0.1-0.2 0.2q0 0.4 0.1 0.9 0 0.1 0 0.2-0.1 0-0.2 0.1z"/><path class="c" d="m6.4 5.1q-0.1 0-0.2 0-0.2 0-0.4 0-0.3 0-0.6 0c-0.1 0-0.1 0.1-0.2 0.2 0 0.1 0.1 0.2 0.2 0.2q0.3 0 0.6 0 0.4 0 0.8 0 0 0 0 0c0.1 0 0.2-0.1 0.2-0.2q0-0.1 0-0.1 0 0 0-0.1 0-0.6 0-1.1c0.1-0.1 0-0.2-0.1-0.2-0.1 0-0.2 0.1-0.2 0.2q-0.1 0.4-0.1 0.9 0 0.1 0 0.2z"/><path class="c" d="m5.2 4q-0.4 0-0.9-0.1c-0.1-0.1-0.2 0-0.2 0.1-0.1 0.1 0 0.2 0.1 0.2q0.7 0.2 1.3 0.2 0.1 0 0.1 0c0.1 0 0.2 0 0.2-0.1q0-0.1 0-0.1 0.1-0.6 0.3-1.2c0-0.1-0.1-0.2-0.2-0.2-0.1 0-0.2 0-0.2 0.1q-0.1 0.4-0.2 0.9 0 0.1-0.1 0.3-0.1-0.1-0.2-0.1z"/><path class="c" d="m4.9 3.1q0.1 0 0.1-0.1 0-0.2 0.1-0.3-0.3 0.2-0.6 0.5 0.1 0 0.2 0 0 0 0 0c0.1 0.1 0.2 0 0.2-0.1z"/></svg>