<svg xmlns="http://www.w3.org/2000/svg" width="976.93896mm" height="400mm" viewBox="0 0 976.93896 400"><path d="m0 0-13.458 15.443 11.554 12.765h-8.368l-9.162-9.948v18.752H-30.37c2.067-1.746 3.822-4.058 3.822-7.176V0h7.114v11.938L-8.87 0Z" style="fill:#fff;fill-opacity:1;fill-rule:nonzero;stroke:none" transform="matrix(6.26999 0 0 -6.26999 190.42 395.733)"/><path d="M0 0v-28.208h-7.113v21.033c0 3.117-1.756 5.428-3.824 7.175z" style="fill:#fff;fill-opacity:1;fill-rule:nonzero;stroke:none" transform="matrix(6.26999 0 0 -6.26999 768.314 218.873)"/><path d="m0 0 3.404-5.944h-27.976l14.377 22.262h-13.424v5.945H2.794L-12.799 0Z" style="fill:#fff;fill-opacity:1;fill-rule:nonzero;stroke:none" transform="matrix(6.26999 0 0 -6.26999 955.596 358.463)"/><path d="M0 0v14.126h4.995l3.407 5.946H0v8.804l-7.112-4.071v-4.733h-5.24v-5.946h5.24V-.388A7.748 7.748 0 0 1 .637-8.136h5.641v5.945H2.191A2.19 2.19 0 0 0 0 0" style="fill:#fff;fill-opacity:1;fill-rule:nonzero;stroke:none" transform="matrix(6.26999 0 0 -6.26999 274.76 344.723)"/><path d="m0 0-7.057-14.859L-15.259.74l-8.205-15.601L-30.519 0h-11.067c2.513-1.412 5.369-3.792 7.087-7.28 1.719-3.487 10.689-21.608 10.689-21.608l8.55 16.332 8.549-16.332L7.644 0Z" style="fill:#fff;fill-opacity:1;fill-rule:nonzero;stroke:none" transform="matrix(6.26999 0 0 -6.26999 631.807 218.873)"/><path d="M0 0c-.979 7.577-6.347 16.198-13.994 22.467 8.242-2.901 15.376-1.503 18.599 3.65.978-7.576 6.348-16.198 13.991-22.466C10.359 6.553 3.222 5.153 0 0" style="fill:#ec1c24;fill-opacity:1;fill-rule:nonzero;stroke:none" transform="matrix(6.26999 0 0 -6.26999 742.055 163.753)"/></svg>